<svg width="758.688843" height="892.824951" viewBox="0 0 758.689 892.825" fill="none" xmlns="http://www.w3.org/2000/svg" xmlns:xlink="http://www.w3.org/1999/xlink">
	<desc>
			Created with Pixso.
	</desc>
	<defs>
		<filter id="filter_27_2145_dd" x="86.039307" y="144.974854" width="641.307129" height="688.336426" filterUnits="userSpaceOnUse" color-interpolation-filters="sRGB">
			<feFlood flood-opacity="0" result="BackgroundImageFix"/>
			<feColorMatrix in="SourceAlpha" type="matrix" values="0 0 0 0 0 0 0 0 0 0 0 0 0 0 0 0 0 0 127 0" result="hardAlpha"/>
			<feMorphology radius="-2" in="" result="BackgroundImageFix"/>
			<feOffset dx="4" dy="6"/>
			<feGaussianBlur stdDeviation="8.33333"/>
			<feComposite in2="hardAlpha" operator="out" k2="-1" k3="1"/>
			<feColorMatrix type="matrix" values="0 0 0 0 0.46667 0 0 0 0 0.5451 0 0 0 0 0.64706 0 0 0 0.059 0"/>
			<feBlend mode="normal" in2="BackgroundImageFix" result="effect_dropShadow_1"/>
			<feBlend mode="normal" in="SourceGraphic" in2="effect_dropShadow_1" result="shape"/>
		</filter>
		<filter id="filter_27_2146_dd" x="45.351196" y="108.974854" width="637.994324" height="669.635742" filterUnits="userSpaceOnUse" color-interpolation-filters="sRGB">
			<feFlood flood-opacity="0" result="BackgroundImageFix"/>
			<feColorMatrix in="SourceAlpha" type="matrix" values="0 0 0 0 0 0 0 0 0 0 0 0 0 0 0 0 0 0 127 0" result="hardAlpha"/>
			<feMorphology radius="-2" in="" result="BackgroundImageFix"/>
			<feOffset dx="4" dy="6"/>
			<feGaussianBlur stdDeviation="8.33333"/>
			<feComposite in2="hardAlpha" operator="out" k2="-1" k3="1"/>
			<feColorMatrix type="matrix" values="0 0 0 0 0.46667 0 0 0 0 0.5451 0 0 0 0 0.64706 0 0 0 0.059 0"/>
			<feBlend mode="normal" in2="BackgroundImageFix" result="effect_dropShadow_1"/>
			<feBlend mode="normal" in="SourceGraphic" in2="effect_dropShadow_1" result="shape"/>
		</filter>
		<filter id="filter_27_2147_dd" x="1.351196" y="70.975098" width="637.994324" height="669.635498" filterUnits="userSpaceOnUse" color-interpolation-filters="sRGB">
			<feFlood flood-opacity="0" result="BackgroundImageFix"/>
			<feColorMatrix in="SourceAlpha" type="matrix" values="0 0 0 0 0 0 0 0 0 0 0 0 0 0 0 0 0 0 127 0" result="hardAlpha"/>
			<feMorphology radius="-2" in="" result="BackgroundImageFix"/>
			<feOffset dx="4" dy="6"/>
			<feGaussianBlur stdDeviation="8.33333"/>
			<feComposite in2="hardAlpha" operator="out" k2="-1" k3="1"/>
			<feColorMatrix type="matrix" values="0 0 0 0 0.46667 0 0 0 0 0.5451 0 0 0 0 0.64706 0 0 0 0.059 0"/>
			<feBlend mode="normal" in2="BackgroundImageFix" result="effect_dropShadow_1"/>
			<feBlend mode="normal" in="SourceGraphic" in2="effect_dropShadow_1" result="shape"/>
		</filter>
	</defs>
	<g filter="url(#filter_27_2145_dd)">
		<path id="Vector 2" d="M647.52 495.09C586.14 543.45 586.11 666.39 509.64 682.51C409.8 703.57 354.41 817.75 263.5 803C170.69 787.94 57.77 739.68 125.84 614.53C191.1 494.56 160.04 368.21 296.4 375.68C398.73 381.29 552.02 89.8 602.6 178.93C671.9 301.02 757.79 408.2 647.52 495.09Z" fill="#FFFFFF" fill-opacity="1.000000" fill-rule="nonzero"/>
		<path id="Vector 2" d="M647.52 495.09C586.14 543.45 586.11 666.39 509.64 682.51C409.8 703.57 354.41 817.75 263.5 803C170.69 787.94 57.77 739.68 125.84 614.53C146.98 575.67 158.01 536.15 167.9 500.72C188.54 426.75 204.21 370.63 296.4 375.68C344.74 378.33 404.46 314.68 459.34 256.17C520.64 190.83 575.91 131.91 602.6 178.93C611.01 193.74 619.67 208.34 628.18 222.71C689.86 326.73 744.41 418.75 647.52 495.09ZM693.11 434.61Q681.42 467.1 646.9 494.3Q629.05 508.37 614.02 534.64Q605.06 550.31 590.2 584.71Q580.58 606.99 575.43 617.49Q566.89 634.91 558.58 646.59Q541.15 671.08 518 679.15Q513.81 680.61 509.43 681.54Q479.4 687.87 447.62 707.45Q428.71 719.1 394.06 746.41Q373.31 762.75 362.98 770.15Q345.86 782.41 331.7 789.61Q301.01 805.23 271.7 802.97Q267.67 802.66 263.66 802.01Q224.66 795.68 193.62 783.86Q156.71 769.8 135.03 749.32Q116.96 732.25 110.1 711.49Q96.55 670.47 126.72 615.01Q140.79 589.14 152.03 556.66Q158.68 537.47 168.86 500.98Q178.86 465.16 184.66 449.62Q194.12 424.25 206.1 409.19Q214.16 399.07 224.38 392.14Q231.94 387 240.69 383.62Q263.31 374.87 296.35 376.68Q328.85 378.46 376.05 339.63Q394.62 324.36 418.23 300.6Q432.33 286.43 460.07 256.85Q490.32 224.6 504.53 210.64Q528.01 187.56 544.52 176.24Q564 162.88 577.57 162.97Q581.69 163 585.38 164.27Q595.02 167.6 601.73 179.42Q610.15 194.25 627.32 223.22Q657.7 274.45 669.95 298.87Q690.19 339.16 696.33 369.48Q703.61 405.39 693.11 434.61Z" fill="#FCFCFC" fill-opacity="1.000000" fill-rule="evenodd"/>
	</g>
	<g filter="url(#filter_27_2146_dd)">
		<path id="Vector 3" d="M603.52 459.09C542.14 507.45 542.1 630.39 465.64 646.51C365.8 667.57 343.68 762.81 252.77 748.06C159.96 733 13.77 703.68 81.84 578.53C147.1 458.56 116.04 332.21 252.4 339.68C354.73 345.29 508.02 53.8 558.6 142.93C627.9 265.02 713.79 372.2 603.52 459.09Z" fill="#FFFFFF" fill-opacity="1.000000" fill-rule="nonzero"/>
		<path id="Vector 3" d="M603.52 459.09C542.14 507.45 542.1 630.39 465.64 646.51C365.8 667.57 343.68 762.81 252.77 748.06C159.96 733 13.77 703.68 81.84 578.53C102.98 539.67 114.01 500.15 123.9 464.72C144.54 390.75 160.21 334.63 252.4 339.68C300.74 342.33 360.46 278.68 415.34 220.17C476.64 154.83 531.91 95.9 558.6 142.93C567.01 157.74 575.67 172.34 584.18 186.71C645.85 290.73 700.41 382.75 603.52 459.09ZM649.1 398.61Q637.42 431.1 602.9 458.3Q585.05 472.37 570.02 498.64Q561.05 514.31 546.2 548.71Q536.58 570.99 531.43 581.49Q522.89 598.9 514.57 610.59Q497.15 635.08 473.99 643.15Q469.8 644.61 465.43 645.54Q463.62 645.92 461.82 646.34Q433.46 652.97 407.39 669.34Q390.95 679.65 363.31 703.1Q347.32 716.67 339.27 722.72Q325.99 732.7 314.36 738.41Q303.82 743.59 292.67 746.12Q273.67 750.44 252.93 747.07Q206.63 739.56 177.59 731.85Q133.81 720.22 107.51 703.73Q77.66 685.01 68.98 659.19Q57.57 625.24 82.72 579.01Q96.79 553.15 108.03 520.66Q114.68 501.47 124.86 464.98Q134.86 429.16 140.66 413.62Q150.12 388.25 162.1 373.19Q170.16 363.07 180.38 356.13Q187.94 351 196.69 347.62Q219.31 338.87 252.35 340.68Q284.85 342.46 332.05 303.63Q350.61 288.37 374.23 264.6Q388.32 250.44 416.07 220.86Q446.32 188.6 460.53 174.64Q484.01 151.56 500.52 140.24Q519.99 126.88 533.57 126.97Q537.69 127 541.38 128.27Q551.02 131.6 557.73 143.42Q566.15 158.26 583.32 187.22Q613.7 238.45 625.95 262.87Q646.18 303.17 652.33 333.48Q659.61 369.39 649.1 398.61Z" fill="#FCFCFC" fill-opacity="1.000000" fill-rule="evenodd"/>
	</g>
	<g filter="url(#filter_27_2147_dd)">
		<path id="Vector 4" d="M559.52 421.09C498.14 469.45 498.1 592.39 421.64 608.51C321.8 629.57 299.68 724.81 208.77 710.06C115.96 695 -30.23 665.68 37.84 540.53C103.1 420.56 72.04 294.21 208.4 301.68C310.73 307.29 464.02 15.8 514.6 104.93C583.9 227.02 669.79 334.2 559.52 421.09Z" fill="#FFFFFF" fill-opacity="1.000000" fill-rule="nonzero"/>
		<path id="Vector 4" d="M559.52 421.09C498.14 469.45 498.1 592.39 421.64 608.51C321.8 629.57 299.68 724.81 208.77 710.06C115.96 695 -30.23 665.68 37.84 540.53C58.98 501.67 70.01 462.15 79.9 426.72C100.54 352.75 116.21 296.63 208.4 301.68C256.74 304.33 316.46 240.68 371.34 182.17C432.64 116.83 487.91 57.9 514.6 104.93C523.01 119.74 531.67 134.34 540.18 148.71C601.85 252.73 656.41 344.75 559.52 421.09ZM605.1 360.61Q593.42 393.1 558.9 420.3Q541.05 434.37 526.02 460.64Q517.05 476.31 502.2 510.71Q492.58 532.99 487.43 543.49Q478.89 560.9 470.57 572.59Q453.15 597.08 429.99 605.15Q425.8 606.61 421.43 607.54Q419.62 607.92 417.82 608.34Q389.46 614.97 363.39 631.34Q346.95 641.65 319.31 665.1Q303.32 678.67 295.27 684.72Q281.99 694.7 270.36 700.41Q259.82 705.59 248.67 708.12Q229.67 712.44 208.93 709.07Q162.63 701.56 133.59 693.85Q89.81 682.22 63.51 665.73Q33.66 647.01 24.98 621.19Q13.57 587.24 38.72 541.01Q52.79 515.15 64.03 482.66Q70.68 463.47 80.86 426.98Q90.86 391.16 96.66 375.62Q106.12 350.25 118.1 335.19Q126.16 325.07 136.38 318.13Q143.94 313 152.69 309.62Q175.31 300.87 208.35 302.68Q240.85 304.46 288.05 265.63Q306.61 250.37 330.23 226.6Q344.32 212.44 372.07 182.86Q402.32 150.6 416.53 136.64Q440.01 113.56 456.52 102.24Q475.99 88.88 489.57 88.97Q493.69 89 497.38 90.27Q507.02 93.6 513.73 105.42Q522.15 120.26 539.32 149.22Q569.7 200.45 581.95 224.87Q602.18 265.17 608.33 295.48Q615.61 331.39 605.1 360.61Z" fill="#FCFCFC" fill-opacity="1.000000" fill-rule="evenodd"/>
	</g>
</svg>
