<svg width="34.076416" height="26.212646" viewBox="0 0 34.0764 26.2126" fill="none" xmlns="http://www.w3.org/2000/svg" xmlns:xlink="http://www.w3.org/1999/xlink">
	<desc>
			Created with Pixso.
	</desc>
	<defs/>
	<path id="Vector" d="M0 0L0 26.21L34.07 26.21L34.07 0L0 0ZM2.62 2.62L31.45 2.62L31.45 23.59L26.99 23.59C26.88 23.41 26.93 23.16 26.78 23.01C26.29 22.52 25.58 22.28 24.9 22.28C24.21 22.28 23.51 22.52 23.01 23.01C22.86 23.16 22.91 23.41 22.81 23.59L11.26 23.59C11.16 23.41 11.2 23.16 11.05 23.01C10.56 22.52 9.85 22.28 9.17 22.28C8.48 22.28 7.78 22.52 7.28 23.01C7.14 23.16 7.18 23.41 7.08 23.59L2.62 23.59L2.62 2.62ZM11.79 5.24C8.91 5.24 6.55 7.6 6.55 10.48C6.55 11.94 7.17 13.25 8.15 14.21C7.25 14.81 6.52 15.62 6.02 16.57C5.51 17.52 5.24 18.58 5.24 19.65L7.86 19.65C7.86 18.61 8.27 17.61 9.01 16.87C9.75 16.14 10.75 15.72 11.79 15.72C12.83 15.72 13.83 16.14 14.57 16.87C15.31 17.61 15.72 18.61 15.72 19.65L18.34 19.65C18.34 18.58 18.07 17.52 17.57 16.57C17.06 15.62 16.33 14.81 15.44 14.21C16.41 13.25 17.03 11.94 17.03 10.48C17.03 7.6 14.67 5.24 11.79 5.24ZM11.79 7.86C13.25 7.86 14.41 9.02 14.41 10.48C14.41 11.94 13.25 13.1 11.79 13.1C10.33 13.1 9.17 11.94 9.17 10.48C9.17 9.02 10.33 7.86 11.79 7.86ZM20.97 9.17L20.97 11.79L28.83 11.79L28.83 9.17L20.97 9.17ZM20.97 14.41L20.97 17.03L28.83 17.03L28.83 14.41L20.97 14.41Z" fill="#FCC028" fill-opacity="1.000000" fill-rule="nonzero"/>
</svg>
