<svg width="12.000000" height="12.000000" viewBox="0 0 12 12" fill="none" xmlns="http://www.w3.org/2000/svg" xmlns:xlink="http://www.w3.org/1999/xlink">
	<desc>
			Created with Pixso.
	</desc>
	<defs>
		<clipPath id="clip55630_329">
			<rect id="carbon:location" rx="0.000000" width="11.000000" height="11.000000" transform="translate(0.500000 0.500000)" fill="white" fill-opacity="0"/>
		</clipPath>
	</defs>
	<rect id="carbon:location" rx="0.000000" width="11.000000" height="11.000000" transform="translate(0.500000 0.500000)" fill="#FFFFFF" fill-opacity="0"/>
	<g clip-path="url(#clip55630_329)">
		<path id="Vector" d="M6 6.75C5.62 6.75 5.26 6.64 4.95 6.43C4.64 6.22 4.4 5.93 4.26 5.59C4.12 5.24 4.08 4.87 4.16 4.5C4.23 4.14 4.41 3.81 4.67 3.54C4.93 3.28 5.27 3.1 5.63 3.03C5.99 2.96 6.37 3 6.71 3.14C7.06 3.28 7.35 3.52 7.55 3.83C7.76 4.14 7.87 4.5 7.87 4.87C7.87 5.37 7.67 5.84 7.32 6.2C6.97 6.55 6.49 6.74 6 6.75ZM6 3.75C5.77 3.75 5.56 3.81 5.37 3.93C5.18 4.06 5.04 4.23 4.96 4.44C4.87 4.65 4.85 4.87 4.89 5.09C4.93 5.31 5.04 5.51 5.2 5.67C5.36 5.82 5.56 5.93 5.78 5.97C5.99 6.02 6.22 5.99 6.43 5.91C6.63 5.82 6.81 5.68 6.93 5.5C7.05 5.31 7.12 5.09 7.12 4.87C7.12 4.57 7 4.29 6.79 4.07C6.58 3.86 6.29 3.75 6 3.75Z" fill="#A7A7A7" fill-opacity="1.000000" fill-rule="nonzero"/>
		<path id="Vector" d="M6 11.25L2.83 7.51C2.79 7.46 2.74 7.4 2.7 7.34C2.16 6.63 1.87 5.76 1.87 4.87C1.87 3.78 2.3 2.73 3.08 1.95C3.85 1.18 4.9 0.75 6 0.75C7.09 0.75 8.14 1.18 8.91 1.95C9.69 2.73 10.12 3.78 10.12 4.87C10.12 5.76 9.83 6.63 9.29 7.34L9.29 7.34C9.29 7.34 9.18 7.49 9.16 7.51L6 11.25ZM3.3 6.89C3.3 6.89 3.39 7.01 3.41 7.03L6 10.09L8.59 7.03C8.6 7.01 8.69 6.89 8.69 6.89C9.13 6.31 9.37 5.6 9.37 4.87C9.37 3.97 9.01 3.12 8.38 2.48C7.75 1.85 6.89 1.5 6 1.5C5.1 1.5 4.24 1.85 3.61 2.48C2.98 3.12 2.62 3.97 2.62 4.87C2.62 5.6 2.86 6.31 3.3 6.89L3.3 6.89Z" fill="#A7A7A7" fill-opacity="1.000000" fill-rule="nonzero"/>
	</g>
</svg>
