<?xml version="1.0" encoding="utf-8"?>
<!-- Svg Vector Icons : http://www.onlinewebfonts.com/icon -->
<!DOCTYPE svg PUBLIC "-//W3C//DTD SVG 1.1//EN" "http://www.w3.org/Graphics/SVG/1.1/DTD/svg11.dtd">
<svg version="1.1" xmlns="http://www.w3.org/2000/svg" xmlns:xlink="http://www.w3.org/1999/xlink" x="0px" y="0px" viewBox="0 0 256 256" enable-background="new 0 0 256 256" xml:space="preserve">
<metadata> Svg Vector Icons : http://www.onlinewebfonts.com/icon </metadata>
<g><g><g><path fill="#000000" d="M116.7,10.3C88.9,13.2,63.9,25,44.4,44.5c-18.7,18.7-30,41.7-33.9,69c-0.8,5.5-0.8,23.6,0,29.1c3.9,27.4,15.1,50.3,33.9,69c18.8,18.7,41.6,29.9,69,33.9c5.4,0.8,23.6,0.8,29.1,0c19-2.7,35.2-8.7,50.6-18.8c12.6-8.2,25.3-21,33.5-33.5c10.1-15.4,16-31.5,18.8-50.6c0.8-5.5,0.8-23.6,0-29.1c-3.9-27.4-15.1-50.3-33.9-69c-18.3-18.3-40.6-29.5-66.9-33.5C138.8,10.1,122.6,9.6,116.7,10.3z M143.5,18.3c24,3.6,46,14.6,62.9,31.5c17.5,17.6,28.2,39.4,31.6,64.4c0.4,2.4,0.6,8.5,0.6,13.9c0,10-0.5,14.8-2.4,23.6c-2.6,12.2-8.9,27-15.8,37.4c-18.1,27.1-46,44.5-78.6,49c-5.7,0.8-22,0.8-27.7,0c-17.5-2.4-33.5-8.4-47.6-17.8C40,202.4,22.5,174.3,18,141.9c-0.8-5.7-0.8-22.5,0-27.9c5.3-36.4,25.9-66.3,57.3-83.4c13.4-7.3,26.1-11,44.3-13.1C123.1,17.1,139,17.6,143.5,18.3z"/><path fill="#000000" d="M47.9,103.6c0.3,0.8,12.7,48.7,12.7,49.1c0,0.1,3.2,0.3,7.1,0.3h7l3.2-11.5c1.8-6.3,4.1-14.8,5.1-19c1.1-4.2,2.1-7.3,2.2-6.9c0.1,0.4,1.2,4.5,2.4,9.2c1.2,4.7,3.3,12.9,4.8,18.2l2.6,9.7h7.1h7.1l6.4-23.8c3.5-13.1,6.5-24.2,6.7-24.8c0.2-1,0.2-1-4.6-1c-4.2,0-4.8,0.1-5.1,0.8c-1.3,4.3-8,29.9-9.1,34.7c-0.7,3.4-1.4,6.3-1.5,6.4c-0.1,0.1-0.9-3-1.8-6.9c-0.9-3.9-3.4-13.3-5.5-20.9l-3.8-13.9l-5.6-0.1l-5.6-0.1l-0.5,1.5c-1.1,3.5-8.8,31.4-9.8,35.6c-0.6,2.5-1.2,4.5-1.3,4.5c-0.1,0-0.8-2.8-1.5-6.1c-0.7-3.3-3-12.7-5.1-20.6l-3.8-14.5l-4.9-0.1C48.7,103.1,47.7,103.2,47.9,103.6z"/><path fill="#000000" d="M126.2,128V153h17.1h17.1V149v-3.9h-12.5h-12.5V138v-7.2h11.8h11.8v-3.5v-3.5h-11.8h-11.8v-6.5v-6.5h12.5h12.5V107v-3.9h-17.1h-17.1V128L126.2,128z"/><path fill="#000000" d="M167.7,128.1V153l16.1-0.1l16-0.1l2.7-1.3c3.2-1.6,4.6-3.8,5.4-8.4c1.3-7.8-1.4-13.9-6.9-15.5l-1.2-0.3l1.4-0.6c2.2-0.9,4.3-3.2,5.1-5.7c1.1-3.4,0.7-9.6-0.7-12.6c-2.4-4.8-4.4-5.3-23.4-5.3h-14.5V128.1L167.7,128.1z M195,112c1.6,1.1,2.3,2.7,2.3,5.7c0,3.2-0.9,5-2.8,5.7c-0.9,0.3-4.8,0.5-9.5,0.5h-8v-6.5v-6.5l8.5,0.2C192.5,111.1,194,111.3,195,112z M196.2,131.8c1.8,0.8,2.6,3.5,2.3,7.2c-0.4,5.5-1.8,6.1-13.9,6.1H177v-6.8c0-3.8,0.1-7,0.4-7.3C177.9,130.4,194.7,131.1,196.2,131.8z"/></g></g></g>
</svg>