<svg width="29.208313" height="26.287598" viewBox="0 0 29.2083 26.2876" fill="none" xmlns="http://www.w3.org/2000/svg" xmlns:xlink="http://www.w3.org/1999/xlink">
	<desc>
			Created with Pixso.
	</desc>
	<defs/>
	<path id="Vector" d="M29.2 10.19L29.2 23.36C29.2 24.97 27.89 26.28 26.28 26.28L2.92 26.28C1.31 26.28 0 24.97 0 23.36L0 5.84C0 4.23 1.31 2.92 2.92 2.92L17.67 2.92C17.58 3.38 17.52 3.88 17.52 4.38C17.52 6.54 18.47 8.45 19.96 9.79L14.6 13.14L2.92 5.84L2.92 8.76L14.6 16.06L22.34 11.21C23.13 11.5 23.95 11.68 24.82 11.68C26.47 11.68 27.98 11.11 29.2 10.19ZM20.44 4.38C20.44 6.8 22.4 8.76 24.82 8.76C27.25 8.76 29.2 6.8 29.2 4.38C29.2 1.95 27.25 0 24.82 0C22.4 0 20.44 1.95 20.44 4.38Z" fill="#FCC028" fill-opacity="1.000000" fill-rule="nonzero"/>
</svg>
