<!-- icon666.com - MILLIONS OF FREE VECTOR ICONS --><svg clip-rule="evenodd" fill-rule="evenodd" image-rendering="optimizeQuality" shape-rendering="geometricPrecision" text-rendering="geometricPrecision" viewBox="0 0 43.3492 43.3492" xmlns="http://www.w3.org/2000/svg" xmlns:xlink="http://www.w3.org/1999/xlink"><linearGradient id="id0" gradientUnits="userSpaceOnUse" x1="-2.47" x2="45.819" y1="13.66" y2="29.69"><stop offset="0" stop-color="#f4505d"></stop><stop offset=".501961" stop-color="#be73ed"></stop><stop offset="1" stop-color="#15c0e9"></stop></linearGradient><g id="Layer_x0020_1"><path d="m2.2222 3.5228c-.8581 0-1.5553.6982-1.5553 1.5552l.0001 25.4024c0 .8571.6971 1.5552 1.555 1.5552h15.1882c.0131-.0008.0261-.0007.0389 0h8.4506c.0128-.0007.0259-.0008.039 0h15.1885c.8579 0 1.555-.6981 1.555-1.5552v-25.4024c0-.8571-.6973-1.5552-1.5552-1.5552h-38.9048zm33.6783 21.3777h-7.0265c-.184 0-.3335-.1494-.3335-.3335s.1493-.3334.3334-.3334h7.0266c.1843 0 .3334.1493.3334.3334.0001.1841-.1493.3335-.3334.3335zm-10.7126 0h-7.0266c-.184 0-.3335-.1494-.3335-.3335.0001-.1841.1493-.3334.3334-.3334h7.0267c.1842 0 .3334.1493.3334.3334.0001.1841-.1494.3335-.3334.3335zm-10.7127 0h-7.0265c-.1841 0-.3336-.1494-.3336-.3335.0001-.1841.1494-.3334.3334-.3334h7.0267c.184 0 .3334.1493.3334.3334.0001.1841-.1494.3335-.3334.3335zm16.733-3.7322h4.6916v-3.9778h-4.6916zm5.025.6669h-5.3585c-.1841 0-.3336-.1493-.3336-.3334l.0001-4.6447c0-.1841.1493-.3335.3334-.3335h5.3586c.1841 0 .3333.1494.3333.3335v4.6447c0 .1841-.1493.3335-.3333.3334zm-12.9452-.6669h4.6926v-3.9778h-4.6926zm5.0259.6669h-5.3594c-.184 0-.3335-.1493-.3335-.3334v-4.6447c0-.1841.1494-.3335.3335-.3335h5.3594c.1842 0 .3334.1494.3334.3335l.0001 4.6447c0 .1841-.1495.3335-.3335.3334zm-12.9453-.6669h4.6926v-3.9778h-4.6926zm5.0251.6669h-5.3584c-.184 0-.3335-.1493-.3335-.3334v-4.6447c0-.1841.1493-.3335.3334-.3335h5.3585c.1851 0 .3334.1494.3334.3335l.0001 4.6447c0 .1841-.1485.3335-.3335.3334zm-12.945-.6669h4.6923v-3.9778h-4.6923zm5.0258.6669h-5.3593c-.184 0-.3336-.1493-.3336-.3334l.0001-4.6447c0-.1841.1493-.3335.3334-.3335h5.3594c.1841 0 .3334.1494.3334.3335l.0002 4.6447c0 .1841-.1495.3335-.3336.3334zm16.9171-8.2006h7.67v-2.3106h-7.67zm8.0033.6669h-8.3369c-.184 0-.3335-.1493-.3335-.3334v-2.9775c0-.1842.1494-.3335.3335-.3335h8.3369c.1841 0 .3335.1494.3335.3335l.0001 2.9775c0 .1841-.1495.3334-.3336.3334zm-19.5549-.6669h7.6692v-2.3106h-7.6692zm8.0026.6669h-8.336c-.1842 0-.3335-.1493-.3335-.3334v-2.9775c0-.1842.1493-.3335.3334-.3335h8.3361c.1842 0 .3333.1494.3333.3335l.0002 2.9775c0 .1841-.1495.3334-.3335.3334zm-19.5548-.6669h7.6698v-2.3106h-7.6698zm8.0034.6669h-8.3369c-.1841 0-.3336-.1493-.3336-.3334v-2.9775c0-.1842.1493-.3335.3334-.3335h8.3371c.184 0 .3333.1494.3333.3335l.0002 2.9775c0 .1841-.1496.3334-.3335.3334zm15.1906 26.1917h-15.6152c-.1512 0-.2841-.1015-.3223-.2483s.0269-.3013.1589-.3751c3.9689-2.2309 3.7093-5.3342 3.4388-7.1682h-14.9198c-1.2254 0-2.2223-.9959-2.2223-2.2212l.0001-25.4024c0-1.2252.9968-2.222 2.222-2.222h38.9052c1.2252 0 2.2219.9968 2.2219 2.222l.0001 25.4024c0 1.2253-.9969 2.2213-2.222 2.2212h-14.9202c-.2712 1.834-.5299 4.9373 3.438 7.1682.132.0738.198.2283.1597.3751-.039.1467-.171.2483-.3229.2483zm-11.6676-7.7916c.151 1.1105.2093 2.2976-.1462 3.5307-.4054 1.4076-1.2973 2.6128-2.6571 3.5941l13.3274-.0001c-1.3598-.9812-2.2526-2.1864-2.6572-3.594-.3554-1.2331-.2971-2.4202-.1462-3.5307zm-14.7654-3.0487h37.2516v-23.7482h-37.2516v23.7482zm37.5851.6669h-37.9186c-.184 0-.3335-.1485-.3335-.3335v-24.4151c0-.184.1494-.3334.3334-.3334h37.9187c.184 0 .3333.1494.3333.3335l.0002 24.415c0 .185-.1495.3335-.3335.3335z" fill="url(#id0)"></path></g></svg>