<svg width="39.755783" height="31.236694" viewBox="0 0 39.7558 31.2367" fill="none" xmlns="http://www.w3.org/2000/svg" xmlns:xlink="http://www.w3.org/1999/xlink">
	<desc>
			Created with Pixso.
	</desc>
	<defs/>
	<path id="Vector" d="M32.29 15.96C36.75 15.96 39.75 19.06 39.75 23.65C39.75 27.79 36.3 31.23 31.62 31.23C26.5 31.23 22.71 27.1 22.71 20.78C22.71 6.43 33.18 0.69 39.75 0L39.75 6.31C35.3 7.11 30.29 11.59 30.06 16.53C30.29 16.42 31.17 15.96 32.29 15.96ZM9.57 15.96C14.03 15.96 17.03 19.06 17.03 23.65C17.03 27.79 13.58 31.23 8.9 31.23C3.78 31.23 0 27.1 0 20.78C0 6.43 10.46 0.69 17.03 0L17.03 6.31C12.58 7.11 7.57 11.59 7.34 16.53C7.57 16.42 8.46 15.96 9.57 15.96Z" fill="#000000" fill-opacity="1.000000" fill-rule="nonzero"/>
</svg>
