<svg width="12.000000" height="12.000000" viewBox="0 0 12 12" fill="none" xmlns="http://www.w3.org/2000/svg" xmlns:xlink="http://www.w3.org/1999/xlink">
	<desc>
			Created with Pixso.
	</desc>
	<defs>
		<clipPath id="clip55630_332">
			<rect id="mdi:office-building" rx="0.000000" width="11.000000" height="11.000000" transform="translate(0.500000 0.500000)" fill="white" fill-opacity="0"/>
		</clipPath>
	</defs>
	<rect id="mdi:office-building" rx="0.000000" width="11.000000" height="11.000000" transform="translate(0.500000 0.500000)" fill="#FFFFFF" fill-opacity="0"/>
	<g clip-path="url(#clip55630_332)">
		<path id="Vector" d="M2.5 1.5L2.5 10.5L5.5 10.5L5.5 8.75L6.5 8.75L6.5 10.5L9.5 10.5L9.5 1.5L2.5 1.5ZM3.5 2.5L4.5 2.5L4.5 3.5L3.5 3.5L3.5 2.5ZM5.5 2.5L6.5 2.5L6.5 3.5L5.5 3.5L5.5 2.5ZM7.5 2.5L8.5 2.5L8.5 3.5L7.5 3.5L7.5 2.5ZM3.5 4.5L4.5 4.5L4.5 5.5L3.5 5.5L3.5 4.5ZM5.5 4.5L6.5 4.5L6.5 5.5L5.5 5.5L5.5 4.5ZM7.5 4.5L8.5 4.5L8.5 5.5L7.5 5.5L7.5 4.5ZM3.5 6.5L4.5 6.5L4.5 7.5L3.5 7.5L3.5 6.5ZM5.5 6.5L6.5 6.5L6.5 7.5L5.5 7.5L5.5 6.5ZM7.5 6.5L8.5 6.5L8.5 7.5L7.5 7.5L7.5 6.5ZM3.5 8.5L4.5 8.5L4.5 9.5L3.5 9.5L3.5 8.5ZM7.5 8.5L8.5 8.5L8.5 9.5L7.5 9.5L7.5 8.5Z" fill="#A7A7A7" fill-opacity="1.000000" fill-rule="nonzero"/>
	</g>
</svg>
