<svg width="34.076416" height="34.076416" viewBox="0 0 34.0764 34.0764" fill="none" xmlns="http://www.w3.org/2000/svg" xmlns:xlink="http://www.w3.org/1999/xlink">
	<desc>
			Created with Pixso.
	</desc>
	<defs/>
	<path id="Vector" d="M23.42 2.12L10.64 2.12C10.08 2.12 9.54 2.35 9.14 2.75C8.74 3.15 8.51 3.69 8.51 4.25L8.51 17.03C8.51 17.32 8.4 17.59 8.2 17.79C8 17.99 7.73 18.1 7.45 18.1C7.17 18.1 6.9 17.99 6.7 17.79C6.5 17.59 6.38 17.32 6.38 17.03L6.38 4.25C6.38 3.12 6.83 2.04 7.63 1.24C8.43 0.44 9.51 0 10.64 0L23.42 0C24.55 0 25.64 0.44 26.43 1.24C27.23 2.04 27.68 3.12 27.68 4.25L27.68 17.03C27.68 17.32 27.57 17.59 27.37 17.79C27.17 17.99 26.9 18.1 26.62 18.1C26.33 18.1 26.06 17.99 25.86 17.79C25.66 17.59 25.55 17.32 25.55 17.03L25.55 4.25C25.55 3.69 25.33 3.15 24.93 2.75C24.53 2.35 23.99 2.12 23.42 2.12ZM25.55 29.81C25.55 30.38 25.33 30.92 24.93 31.32C24.53 31.72 23.99 31.94 23.42 31.94L10.64 31.94C10.08 31.94 9.54 31.72 9.14 31.32C8.74 30.92 8.51 30.38 8.51 29.81L8.51 25.55C8.51 25.27 8.4 25 8.2 24.8C8 24.6 7.73 24.49 7.45 24.49C7.17 24.49 6.9 24.6 6.7 24.8C6.5 25 6.38 25.27 6.38 25.55L6.38 29.81C6.38 30.94 6.83 32.03 7.63 32.82C8.43 33.62 9.51 34.07 10.64 34.07L23.42 34.07C24.55 34.07 25.64 33.62 26.43 32.82C27.23 32.03 27.68 30.94 27.68 29.81L27.68 25.55C27.68 25.27 27.57 25 27.37 24.8C27.17 24.6 26.9 24.49 26.62 24.49C26.33 24.49 26.06 24.6 25.86 24.8C25.66 25 25.55 25.27 25.55 25.55L25.55 29.81ZM3.64 16.94C3.9 16.82 4.1 16.6 4.2 16.34C4.29 16.07 4.28 15.78 4.16 15.52C4.11 15.4 4.02 15.28 3.92 15.19C3.82 15.09 3.7 15.02 3.57 14.97C3.3 14.87 3.01 14.88 2.75 15C2.01 15.34 1.36 15.74 0.87 16.22C0.39 16.7 0 17.33 0 18.1C0 19.26 0.86 20.1 1.75 20.66C2.68 21.25 3.97 21.74 5.46 22.14C8.47 22.94 12.56 23.42 17.03 23.42C17.24 23.42 17.45 23.42 17.66 23.42L15.21 25.86C15.12 25.96 15.04 26.08 14.98 26.21C14.93 26.34 14.9 26.48 14.9 26.62C14.9 26.76 14.93 26.9 14.98 27.03C15.04 27.15 15.12 27.27 15.21 27.37C15.41 27.57 15.69 27.68 15.97 27.68C16.11 27.68 16.25 27.66 16.38 27.6C16.51 27.55 16.62 27.47 16.72 27.37L20.98 23.11C21.08 23.01 21.16 22.9 21.21 22.77C21.27 22.64 21.29 22.5 21.29 22.36C21.29 22.22 21.27 22.08 21.21 21.95C21.16 21.82 21.08 21.7 20.98 21.6L16.72 17.34C16.62 17.25 16.51 17.17 16.38 17.11C16.25 17.06 16.11 17.03 15.97 17.03C15.83 17.03 15.69 17.06 15.56 17.11C15.43 17.17 15.31 17.25 15.21 17.34C15.12 17.44 15.04 17.56 14.98 17.69C14.93 17.82 14.9 17.96 14.9 18.1C14.9 18.24 14.93 18.38 14.98 18.51C15.04 18.64 15.12 18.75 15.21 18.85L17.65 21.29L17.03 21.29C12.69 21.29 8.79 20.82 6.01 20.08C4.62 19.71 3.56 19.28 2.88 18.86C2.15 18.39 2.12 18.11 2.12 18.1C2.12 18.09 2.12 17.97 2.36 17.74C2.61 17.5 3.02 17.22 3.64 16.94L3.64 16.94ZM31.32 15C31.06 14.88 30.77 14.87 30.5 14.97C30.24 15.07 30.02 15.27 29.9 15.52C29.78 15.78 29.77 16.07 29.87 16.34C29.97 16.6 30.17 16.82 30.42 16.94C31.05 17.22 31.46 17.5 31.7 17.74C31.94 17.97 31.94 18.09 31.94 18.1C31.94 18.1 31.94 18.24 31.66 18.5C31.38 18.76 30.92 19.05 30.22 19.35C28.85 19.94 26.82 20.46 24.34 20.81C24.06 20.86 23.82 21.01 23.65 21.23C23.48 21.46 23.41 21.74 23.45 22.01C23.49 22.29 23.64 22.54 23.86 22.71C24.08 22.88 24.36 22.95 24.64 22.92C27.22 22.56 29.45 22 31.07 21.31C31.88 20.96 32.59 20.55 33.11 20.06C33.64 19.57 34.07 18.91 34.07 18.1C34.07 17.33 33.68 16.69 33.19 16.22C32.71 15.74 32.05 15.34 31.32 15ZM15.97 4.25C15.69 4.25 15.42 4.37 15.22 4.57C15.02 4.77 14.9 5.04 14.9 5.32C14.9 5.6 15.02 5.87 15.22 6.07C15.42 6.27 15.69 6.38 15.97 6.38L18.1 6.38C18.38 6.38 18.65 6.27 18.85 6.07C19.05 5.87 19.16 5.6 19.16 5.32C19.16 5.04 19.05 4.77 18.85 4.57C18.65 4.37 18.38 4.25 18.1 4.25L15.97 4.25Z" fill="#FCC028" fill-opacity="1.000000" fill-rule="evenodd"/>
</svg>
