<svg width="39.755798" height="31.236694" viewBox="0 0 39.7558 31.2367" fill="none" xmlns="http://www.w3.org/2000/svg" xmlns:xlink="http://www.w3.org/1999/xlink">
	<desc>
			Created with Pixso.
	</desc>
	<defs/>
	<path id="Vector" d="M7.45 15.27C3.01 15.27 0 12.17 0 7.57C0 3.44 3.45 0 8.13 0C13.25 0 17.03 4.13 17.03 10.45C17.03 24.8 6.57 30.54 0 31.23L0 24.92C4.45 24.11 9.46 19.63 9.68 14.69C9.46 14.81 8.57 15.27 7.45 15.27ZM30.17 15.27C25.72 15.27 22.71 12.17 22.71 7.57C22.71 3.44 26.17 0 30.84 0C35.97 0 39.75 4.13 39.75 10.45C39.75 24.8 29.28 30.54 22.71 31.23L22.71 24.92C27.17 24.11 32.18 19.63 32.4 14.69C32.18 14.81 31.29 15.27 30.17 15.27Z" fill="#000000" fill-opacity="1.000000" fill-rule="nonzero"/>
</svg>
