<svg width="170.381958" height="155.756836" viewBox="0 0 170.382 155.757" fill="none" xmlns="http://www.w3.org/2000/svg" xmlns:xlink="http://www.w3.org/1999/xlink">
	<desc>
			Created with Pixso.
	</desc>
	<defs>
		<clipPath id="clip13_1898">
			<rect id="Frame 17" rx="0.000000" width="169.650696" height="155.025635" transform="translate(0.365626 0.365626)" fill="white" fill-opacity="0"/>
		</clipPath>
	</defs>
	<g clip-path="url(#clip13_1898)">
		<rect id="Rectangle 1" x="5.118164" y="2.194336" width="7.312530" height="7.312530" fill="#FCC028" fill-opacity="1.000000"/>
		<rect id="Rectangle 81" x="59.962280" y="2.194336" width="7.312530" height="7.312530" fill="#FCC028" fill-opacity="1.000000"/>
		<rect id="Rectangle 161" x="114.806396" y="2.194336" width="7.312530" height="7.312530" fill="#FCC028" fill-opacity="1.000000"/>
		<rect id="Rectangle 17" x="16.086792" y="2.194336" width="7.312530" height="7.312530" fill="#FCC028" fill-opacity="1.000000"/>
		<rect id="Rectangle 82" x="70.931152" y="2.194336" width="7.312530" height="7.312530" fill="#FCC028" fill-opacity="1.000000"/>
		<rect id="Rectangle 162" x="125.775391" y="2.194336" width="7.312530" height="7.312530" fill="#FCC028" fill-opacity="1.000000"/>
		<rect id="Rectangle 33" x="27.056519" y="2.194336" width="7.312530" height="7.312530" fill="#FCC028" fill-opacity="1.000000"/>
		<rect id="Rectangle 83" x="81.899902" y="2.194336" width="7.312530" height="7.312530" fill="#FCC028" fill-opacity="1.000000"/>
		<rect id="Rectangle 163" x="136.744385" y="2.194336" width="7.312530" height="7.312530" fill="#FCC028" fill-opacity="1.000000"/>
		<rect id="Rectangle 49" x="38.024902" y="2.194336" width="7.312530" height="7.312530" fill="#FCC028" fill-opacity="1.000000"/>
		<rect id="Rectangle 84" x="92.868896" y="2.194336" width="7.312530" height="7.312530" fill="#FCC028" fill-opacity="1.000000"/>
		<rect id="Rectangle 164" x="147.713013" y="2.194336" width="7.312530" height="7.312530" fill="#FCC028" fill-opacity="1.000000"/>
		<rect id="Rectangle 65" x="48.993896" y="2.194336" width="7.312530" height="7.312530" fill="#FCC028" fill-opacity="1.000000"/>
		<rect id="Rectangle 85" x="103.837769" y="2.194336" width="7.312530" height="7.312530" fill="#FCC028" fill-opacity="1.000000"/>
		<rect id="Rectangle 165" x="158.681641" y="2.194336" width="7.312530" height="7.312530" fill="#FCC028" fill-opacity="1.000000"/>
		<rect id="Rectangle 2" x="5.118164" y="11.700684" width="7.312530" height="7.312530" fill="#FCC028" fill-opacity="1.000000"/>
		<rect id="Rectangle 86" x="59.962280" y="11.700684" width="7.312530" height="7.312530" fill="#FCC028" fill-opacity="1.000000"/>
		<rect id="Rectangle 166" x="114.806396" y="11.700684" width="7.312530" height="7.312530" fill="#FCC028" fill-opacity="1.000000"/>
		<rect id="Rectangle 18" x="16.086792" y="11.700684" width="7.312530" height="7.312530" fill="#FCC028" fill-opacity="1.000000"/>
		<rect id="Rectangle 87" x="70.931152" y="11.700684" width="7.312530" height="7.312530" fill="#FCC028" fill-opacity="1.000000"/>
		<rect id="Rectangle 167" x="125.775391" y="11.700684" width="7.312530" height="7.312530" fill="#FCC028" fill-opacity="1.000000"/>
		<rect id="Rectangle 34" x="27.056519" y="11.700684" width="7.312530" height="7.312530" fill="#FCC028" fill-opacity="1.000000"/>
		<rect id="Rectangle 88" x="81.899902" y="11.700684" width="7.312530" height="7.312530" fill="#FCC028" fill-opacity="1.000000"/>
		<rect id="Rectangle 168" x="136.744385" y="11.700684" width="7.312530" height="7.312530" fill="#FCC028" fill-opacity="1.000000"/>
		<rect id="Rectangle 50" x="38.024902" y="11.700684" width="7.312530" height="7.312530" fill="#FCC028" fill-opacity="1.000000"/>
		<rect id="Rectangle 89" x="92.868896" y="11.700684" width="7.312530" height="7.312530" fill="#FCC028" fill-opacity="1.000000"/>
		<rect id="Rectangle 169" x="147.713013" y="11.700684" width="7.312530" height="7.312530" fill="#FCC028" fill-opacity="1.000000"/>
		<rect id="Rectangle 66" x="48.993896" y="11.700684" width="7.312530" height="7.312530" fill="#FCC028" fill-opacity="1.000000"/>
		<rect id="Rectangle 90" x="103.837769" y="11.700684" width="7.312530" height="7.312530" fill="#FCC028" fill-opacity="1.000000"/>
		<rect id="Rectangle 170" x="158.681641" y="11.700684" width="7.312530" height="7.312530" fill="#FCC028" fill-opacity="1.000000"/>
		<rect id="Rectangle 3" x="5.118164" y="21.207031" width="7.312530" height="7.312530" fill="#FCC028" fill-opacity="1.000000"/>
		<rect id="Rectangle 91" x="59.962280" y="21.207031" width="7.312530" height="7.312530" fill="#FCC028" fill-opacity="1.000000"/>
		<rect id="Rectangle 171" x="114.806396" y="21.207031" width="7.312530" height="7.312530" fill="#FCC028" fill-opacity="1.000000"/>
		<rect id="Rectangle 19" x="16.086792" y="21.207031" width="7.312530" height="7.312530" fill="#FCC028" fill-opacity="1.000000"/>
		<rect id="Rectangle 92" x="70.931152" y="21.207031" width="7.312530" height="7.312530" fill="#FCC028" fill-opacity="1.000000"/>
		<rect id="Rectangle 172" x="125.775391" y="21.207031" width="7.312530" height="7.312530" fill="#FCC028" fill-opacity="1.000000"/>
		<rect id="Rectangle 35" x="27.056519" y="21.207031" width="7.312530" height="7.312530" fill="#FCC028" fill-opacity="1.000000"/>
		<rect id="Rectangle 93" x="81.899902" y="21.207031" width="7.312530" height="7.312530" fill="#FCC028" fill-opacity="1.000000"/>
		<rect id="Rectangle 173" x="136.744385" y="21.207031" width="7.312530" height="7.312530" fill="#FCC028" fill-opacity="1.000000"/>
		<rect id="Rectangle 51" x="38.024902" y="21.207031" width="7.312530" height="7.312530" fill="#FCC028" fill-opacity="1.000000"/>
		<rect id="Rectangle 94" x="92.868896" y="21.207031" width="7.312530" height="7.312530" fill="#FCC028" fill-opacity="1.000000"/>
		<rect id="Rectangle 174" x="147.713013" y="21.207031" width="7.312530" height="7.312530" fill="#FCC028" fill-opacity="1.000000"/>
		<rect id="Rectangle 67" x="48.993896" y="21.207031" width="7.312530" height="7.312530" fill="#FCC028" fill-opacity="1.000000"/>
		<rect id="Rectangle 95" x="103.837769" y="21.207031" width="7.312530" height="7.312530" fill="#FCC028" fill-opacity="1.000000"/>
		<rect id="Rectangle 175" x="158.681641" y="21.207031" width="7.312530" height="7.312530" fill="#FCC028" fill-opacity="1.000000"/>
		<rect id="Rectangle 4" x="5.118164" y="30.713379" width="7.312530" height="7.312530" fill="#FCC028" fill-opacity="1.000000"/>
		<rect id="Rectangle 96" x="59.962280" y="30.713379" width="7.312530" height="7.312530" fill="#FCC028" fill-opacity="1.000000"/>
		<rect id="Rectangle 176" x="114.806396" y="30.713379" width="7.312530" height="7.312530" fill="#FCC028" fill-opacity="1.000000"/>
		<rect id="Rectangle 20" x="16.086792" y="30.713379" width="7.312530" height="7.312530" fill="#FCC028" fill-opacity="1.000000"/>
		<rect id="Rectangle 97" x="70.931152" y="30.713379" width="7.312530" height="7.312530" fill="#FCC028" fill-opacity="1.000000"/>
		<rect id="Rectangle 177" x="125.775391" y="30.713379" width="7.312530" height="7.312530" fill="#FCC028" fill-opacity="1.000000"/>
		<rect id="Rectangle 36" x="27.056519" y="30.713379" width="7.312530" height="7.312530" fill="#FCC028" fill-opacity="1.000000"/>
		<rect id="Rectangle 98" x="81.899902" y="30.713379" width="7.312530" height="7.312530" fill="#FCC028" fill-opacity="1.000000"/>
		<rect id="Rectangle 178" x="136.744385" y="30.713379" width="7.312530" height="7.312530" fill="#FCC028" fill-opacity="1.000000"/>
		<rect id="Rectangle 52" x="38.024902" y="30.713379" width="7.312530" height="7.312530" fill="#FCC028" fill-opacity="1.000000"/>
		<rect id="Rectangle 99" x="92.868896" y="30.713379" width="7.312530" height="7.312530" fill="#FCC028" fill-opacity="1.000000"/>
		<rect id="Rectangle 179" x="147.713013" y="30.713379" width="7.312530" height="7.312530" fill="#FCC028" fill-opacity="1.000000"/>
		<rect id="Rectangle 68" x="48.993896" y="30.713379" width="7.312530" height="7.312530" fill="#FCC028" fill-opacity="1.000000"/>
		<rect id="Rectangle 100" x="103.837769" y="30.713379" width="7.312530" height="7.312530" fill="#FCC028" fill-opacity="1.000000"/>
		<rect id="Rectangle 180" x="158.681641" y="30.713379" width="7.312530" height="7.312530" fill="#FCC028" fill-opacity="1.000000"/>
		<rect id="Rectangle 5" x="5.118164" y="40.219238" width="7.312530" height="7.312530" fill="#FCC028" fill-opacity="1.000000"/>
		<rect id="Rectangle 101" x="59.962280" y="40.219238" width="7.312530" height="7.312530" fill="#FCC028" fill-opacity="1.000000"/>
		<rect id="Rectangle 181" x="114.806396" y="40.219238" width="7.312530" height="7.312530" fill="#FCC028" fill-opacity="1.000000"/>
		<rect id="Rectangle 21" x="16.086792" y="40.219238" width="7.312530" height="7.312530" fill="#FCC028" fill-opacity="1.000000"/>
		<rect id="Rectangle 102" x="70.931152" y="40.219238" width="7.312530" height="7.312530" fill="#FCC028" fill-opacity="1.000000"/>
		<rect id="Rectangle 182" x="125.775391" y="40.219238" width="7.312530" height="7.312530" fill="#FCC028" fill-opacity="1.000000"/>
		<rect id="Rectangle 37" x="27.056519" y="40.219238" width="7.312530" height="7.312530" fill="#FCC028" fill-opacity="1.000000"/>
		<rect id="Rectangle 103" x="81.899902" y="40.219238" width="7.312530" height="7.312530" fill="#FCC028" fill-opacity="1.000000"/>
		<rect id="Rectangle 183" x="136.744385" y="40.219238" width="7.312530" height="7.312530" fill="#FCC028" fill-opacity="1.000000"/>
		<rect id="Rectangle 53" x="38.024902" y="40.219238" width="7.312530" height="7.312530" fill="#FCC028" fill-opacity="1.000000"/>
		<rect id="Rectangle 104" x="92.868896" y="40.219238" width="7.312530" height="7.312530" fill="#FCC028" fill-opacity="1.000000"/>
		<rect id="Rectangle 184" x="147.713013" y="40.219238" width="7.312530" height="7.312530" fill="#FCC028" fill-opacity="1.000000"/>
		<rect id="Rectangle 69" x="48.993896" y="40.219238" width="7.312530" height="7.312530" fill="#FCC028" fill-opacity="1.000000"/>
		<rect id="Rectangle 105" x="103.837769" y="40.219238" width="7.312530" height="7.312530" fill="#FCC028" fill-opacity="1.000000"/>
		<rect id="Rectangle 185" x="158.681641" y="40.219238" width="7.312530" height="7.312530" fill="#FCC028" fill-opacity="1.000000"/>
		<rect id="Rectangle 6" x="5.118164" y="49.725586" width="7.312530" height="7.312530" fill="#FCC028" fill-opacity="1.000000"/>
		<rect id="Rectangle 106" x="59.962280" y="49.725586" width="7.312530" height="7.312530" fill="#FCC028" fill-opacity="1.000000"/>
		<rect id="Rectangle 186" x="114.806396" y="49.725586" width="7.312530" height="7.312530" fill="#FCC028" fill-opacity="1.000000"/>
		<rect id="Rectangle 22" x="16.086792" y="49.725586" width="7.312530" height="7.312530" fill="#FCC028" fill-opacity="1.000000"/>
		<rect id="Rectangle 107" x="70.931152" y="49.725586" width="7.312530" height="7.312530" fill="#FCC028" fill-opacity="1.000000"/>
		<rect id="Rectangle 187" x="125.775391" y="49.725586" width="7.312530" height="7.312530" fill="#FCC028" fill-opacity="1.000000"/>
		<rect id="Rectangle 38" x="27.056519" y="49.725586" width="7.312530" height="7.312530" fill="#FCC028" fill-opacity="1.000000"/>
		<rect id="Rectangle 108" x="81.899902" y="49.725586" width="7.312530" height="7.312530" fill="#FCC028" fill-opacity="1.000000"/>
		<rect id="Rectangle 188" x="136.744385" y="49.725586" width="7.312530" height="7.312530" fill="#FCC028" fill-opacity="1.000000"/>
		<rect id="Rectangle 54" x="38.024902" y="49.725586" width="7.312530" height="7.312530" fill="#FCC028" fill-opacity="1.000000"/>
		<rect id="Rectangle 109" x="92.868896" y="49.725586" width="7.312530" height="7.312530" fill="#FCC028" fill-opacity="1.000000"/>
		<rect id="Rectangle 189" x="147.713013" y="49.725586" width="7.312530" height="7.312530" fill="#FCC028" fill-opacity="1.000000"/>
		<rect id="Rectangle 70" x="48.993896" y="49.725586" width="7.312530" height="7.312530" fill="#FCC028" fill-opacity="1.000000"/>
		<rect id="Rectangle 110" x="103.837769" y="49.725586" width="7.312530" height="7.312530" fill="#FCC028" fill-opacity="1.000000"/>
		<rect id="Rectangle 190" x="158.681641" y="49.725586" width="7.312530" height="7.312530" fill="#FCC028" fill-opacity="1.000000"/>
		<rect id="Rectangle 7" x="5.118164" y="59.231934" width="7.312530" height="7.312530" fill="#FCC028" fill-opacity="1.000000"/>
		<rect id="Rectangle 111" x="59.962280" y="59.231934" width="7.312530" height="7.312530" fill="#FCC028" fill-opacity="1.000000"/>
		<rect id="Rectangle 191" x="114.806396" y="59.231934" width="7.312530" height="7.312530" fill="#FCC028" fill-opacity="1.000000"/>
		<rect id="Rectangle 23" x="16.086792" y="59.231934" width="7.312530" height="7.312530" fill="#FCC028" fill-opacity="1.000000"/>
		<rect id="Rectangle 112" x="70.931152" y="59.231934" width="7.312530" height="7.312530" fill="#FCC028" fill-opacity="1.000000"/>
		<rect id="Rectangle 192" x="125.775391" y="59.231934" width="7.312530" height="7.312530" fill="#FCC028" fill-opacity="1.000000"/>
		<rect id="Rectangle 39" x="27.056519" y="59.231934" width="7.312530" height="7.312530" fill="#FCC028" fill-opacity="1.000000"/>
		<rect id="Rectangle 113" x="81.899902" y="59.231934" width="7.312530" height="7.312530" fill="#FCC028" fill-opacity="1.000000"/>
		<rect id="Rectangle 193" x="136.744385" y="59.231934" width="7.312530" height="7.312530" fill="#FCC028" fill-opacity="1.000000"/>
		<rect id="Rectangle 55" x="38.024902" y="59.231934" width="7.312530" height="7.312530" fill="#FCC028" fill-opacity="1.000000"/>
		<rect id="Rectangle 114" x="92.868896" y="59.231934" width="7.312530" height="7.312530" fill="#FCC028" fill-opacity="1.000000"/>
		<rect id="Rectangle 194" x="147.713013" y="59.231934" width="7.312530" height="7.312530" fill="#FCC028" fill-opacity="1.000000"/>
		<rect id="Rectangle 71" x="48.993896" y="59.231934" width="7.312530" height="7.312530" fill="#FCC028" fill-opacity="1.000000"/>
		<rect id="Rectangle 115" x="103.837769" y="59.231934" width="7.312530" height="7.312530" fill="#FCC028" fill-opacity="1.000000"/>
		<rect id="Rectangle 195" x="158.681641" y="59.231934" width="7.312530" height="7.312530" fill="#FCC028" fill-opacity="1.000000"/>
		<rect id="Rectangle 8" x="5.118164" y="68.737793" width="7.312530" height="7.312530" fill="#FCC028" fill-opacity="1.000000"/>
		<rect id="Rectangle 116" x="59.962280" y="68.737793" width="7.312530" height="7.312530" fill="#FCC028" fill-opacity="1.000000"/>
		<rect id="Rectangle 196" x="114.806396" y="68.737793" width="7.312530" height="7.312530" fill="#FCC028" fill-opacity="1.000000"/>
		<rect id="Rectangle 24" x="16.086792" y="68.737793" width="7.312530" height="7.312530" fill="#FCC028" fill-opacity="1.000000"/>
		<rect id="Rectangle 117" x="70.931152" y="68.737793" width="7.312530" height="7.312530" fill="#FCC028" fill-opacity="1.000000"/>
		<rect id="Rectangle 197" x="125.775391" y="68.737793" width="7.312530" height="7.312530" fill="#FCC028" fill-opacity="1.000000"/>
		<rect id="Rectangle 40" x="27.056519" y="68.737793" width="7.312530" height="7.312530" fill="#FCC028" fill-opacity="1.000000"/>
		<rect id="Rectangle 118" x="81.899902" y="68.737793" width="7.312530" height="7.312530" fill="#FCC028" fill-opacity="1.000000"/>
		<rect id="Rectangle 198" x="136.744385" y="68.737793" width="7.312530" height="7.312530" fill="#FCC028" fill-opacity="1.000000"/>
		<rect id="Rectangle 56" x="38.024902" y="68.737793" width="7.312530" height="7.312530" fill="#FCC028" fill-opacity="1.000000"/>
		<rect id="Rectangle 119" x="92.868896" y="68.737793" width="7.312530" height="7.312530" fill="#FCC028" fill-opacity="1.000000"/>
		<rect id="Rectangle 199" x="147.713013" y="68.737793" width="7.312530" height="7.312530" fill="#FCC028" fill-opacity="1.000000"/>
		<rect id="Rectangle 72" x="48.993896" y="68.737793" width="7.312530" height="7.312530" fill="#FCC028" fill-opacity="1.000000"/>
		<rect id="Rectangle 120" x="103.837769" y="68.737793" width="7.312530" height="7.312530" fill="#FCC028" fill-opacity="1.000000"/>
		<rect id="Rectangle 200" x="158.681641" y="68.737793" width="7.312530" height="7.312530" fill="#FCC028" fill-opacity="1.000000"/>
		<rect id="Rectangle 9" x="5.118164" y="78.244141" width="7.312530" height="7.312530" fill="#FCC028" fill-opacity="1.000000"/>
		<rect id="Rectangle 121" x="59.962280" y="78.244141" width="7.312530" height="7.312530" fill="#FCC028" fill-opacity="1.000000"/>
		<rect id="Rectangle 201" x="114.806396" y="78.244141" width="7.312530" height="7.312530" fill="#FCC028" fill-opacity="1.000000"/>
		<rect id="Rectangle 25" x="16.086792" y="78.244141" width="7.312530" height="7.312530" fill="#FCC028" fill-opacity="1.000000"/>
		<rect id="Rectangle 122" x="70.931152" y="78.244141" width="7.312530" height="7.312530" fill="#FCC028" fill-opacity="1.000000"/>
		<rect id="Rectangle 202" x="125.775391" y="78.244141" width="7.312530" height="7.312530" fill="#FCC028" fill-opacity="1.000000"/>
		<rect id="Rectangle 41" x="27.056519" y="78.244141" width="7.312530" height="7.312530" fill="#FCC028" fill-opacity="1.000000"/>
		<rect id="Rectangle 123" x="81.899902" y="78.244141" width="7.312530" height="7.312530" fill="#FCC028" fill-opacity="1.000000"/>
		<rect id="Rectangle 203" x="136.744385" y="78.244141" width="7.312530" height="7.312530" fill="#FCC028" fill-opacity="1.000000"/>
		<rect id="Rectangle 57" x="38.024902" y="78.244141" width="7.312530" height="7.312530" fill="#FCC028" fill-opacity="1.000000"/>
		<rect id="Rectangle 124" x="92.868896" y="78.244141" width="7.312530" height="7.312530" fill="#FCC028" fill-opacity="1.000000"/>
		<rect id="Rectangle 204" x="147.713013" y="78.244141" width="7.312530" height="7.312530" fill="#FCC028" fill-opacity="1.000000"/>
		<rect id="Rectangle 73" x="48.993896" y="78.244141" width="7.312530" height="7.312530" fill="#FCC028" fill-opacity="1.000000"/>
		<rect id="Rectangle 125" x="103.837769" y="78.244141" width="7.312530" height="7.312530" fill="#FCC028" fill-opacity="1.000000"/>
		<rect id="Rectangle 205" x="158.681641" y="78.244141" width="7.312530" height="7.312530" fill="#FCC028" fill-opacity="1.000000"/>
		<rect id="Rectangle 10" x="5.118164" y="87.750000" width="7.312530" height="7.312530" fill="#FCC028" fill-opacity="1.000000"/>
		<rect id="Rectangle 126" x="59.962280" y="87.750000" width="7.312530" height="7.312530" fill="#FCC028" fill-opacity="1.000000"/>
		<rect id="Rectangle 206" x="114.806396" y="87.750000" width="7.312530" height="7.312530" fill="#FCC028" fill-opacity="1.000000"/>
		<rect id="Rectangle 26" x="16.086792" y="87.750000" width="7.312530" height="7.312530" fill="#FCC028" fill-opacity="1.000000"/>
		<rect id="Rectangle 127" x="70.931152" y="87.750000" width="7.312530" height="7.312530" fill="#FCC028" fill-opacity="1.000000"/>
		<rect id="Rectangle 207" x="125.775391" y="87.750000" width="7.312530" height="7.312530" fill="#FCC028" fill-opacity="1.000000"/>
		<rect id="Rectangle 42" x="27.056519" y="87.750000" width="7.312530" height="7.312530" fill="#FCC028" fill-opacity="1.000000"/>
		<rect id="Rectangle 128" x="81.899902" y="87.750000" width="7.312530" height="7.312530" fill="#FCC028" fill-opacity="1.000000"/>
		<rect id="Rectangle 208" x="136.744385" y="87.750000" width="7.312530" height="7.312530" fill="#FCC028" fill-opacity="1.000000"/>
		<rect id="Rectangle 58" x="38.024902" y="87.750000" width="7.312530" height="7.312530" fill="#FCC028" fill-opacity="1.000000"/>
		<rect id="Rectangle 129" x="92.868896" y="87.750000" width="7.312530" height="7.312530" fill="#FCC028" fill-opacity="1.000000"/>
		<rect id="Rectangle 209" x="147.713013" y="87.750000" width="7.312530" height="7.312530" fill="#FCC028" fill-opacity="1.000000"/>
		<rect id="Rectangle 74" x="48.993896" y="87.750000" width="7.312530" height="7.312530" fill="#FCC028" fill-opacity="1.000000"/>
		<rect id="Rectangle 130" x="103.837769" y="87.750000" width="7.312530" height="7.312530" fill="#FCC028" fill-opacity="1.000000"/>
		<rect id="Rectangle 210" x="158.681641" y="87.750000" width="7.312530" height="7.312530" fill="#FCC028" fill-opacity="1.000000"/>
		<rect id="Rectangle 11" x="5.118164" y="97.256836" width="7.312530" height="7.312530" fill="#FCC028" fill-opacity="1.000000"/>
		<rect id="Rectangle 131" x="59.962280" y="97.256836" width="7.312530" height="7.312530" fill="#FCC028" fill-opacity="1.000000"/>
		<rect id="Rectangle 211" x="114.806396" y="97.256836" width="7.312530" height="7.312530" fill="#FCC028" fill-opacity="1.000000"/>
		<rect id="Rectangle 27" x="16.086792" y="97.256836" width="7.312530" height="7.312530" fill="#FCC028" fill-opacity="1.000000"/>
		<rect id="Rectangle 132" x="70.931152" y="97.256836" width="7.312530" height="7.312530" fill="#FCC028" fill-opacity="1.000000"/>
		<rect id="Rectangle 212" x="125.775391" y="97.256836" width="7.312530" height="7.312530" fill="#FCC028" fill-opacity="1.000000"/>
		<rect id="Rectangle 43" x="27.056519" y="97.256836" width="7.312530" height="7.312530" fill="#FCC028" fill-opacity="1.000000"/>
		<rect id="Rectangle 133" x="81.899902" y="97.256836" width="7.312530" height="7.312530" fill="#FCC028" fill-opacity="1.000000"/>
		<rect id="Rectangle 213" x="136.744385" y="97.256836" width="7.312530" height="7.312530" fill="#FCC028" fill-opacity="1.000000"/>
		<rect id="Rectangle 59" x="38.024902" y="97.256836" width="7.312530" height="7.312530" fill="#FCC028" fill-opacity="1.000000"/>
		<rect id="Rectangle 134" x="92.868896" y="97.256836" width="7.312530" height="7.312530" fill="#FCC028" fill-opacity="1.000000"/>
		<rect id="Rectangle 214" x="147.713013" y="97.256836" width="7.312530" height="7.312530" fill="#FCC028" fill-opacity="1.000000"/>
		<rect id="Rectangle 75" x="48.993896" y="97.256836" width="7.312530" height="7.312530" fill="#FCC028" fill-opacity="1.000000"/>
		<rect id="Rectangle 135" x="103.837769" y="97.256836" width="7.312530" height="7.312530" fill="#FCC028" fill-opacity="1.000000"/>
		<rect id="Rectangle 215" x="158.681641" y="97.256836" width="7.312530" height="7.312530" fill="#FCC028" fill-opacity="1.000000"/>
		<rect id="Rectangle 12" x="5.118164" y="106.762695" width="7.312530" height="7.312530" fill="#FCC028" fill-opacity="1.000000"/>
		<rect id="Rectangle 136" x="59.962280" y="106.762695" width="7.312530" height="7.312530" fill="#FCC028" fill-opacity="1.000000"/>
		<rect id="Rectangle 216" x="114.806396" y="106.762695" width="7.312530" height="7.312530" fill="#FCC028" fill-opacity="1.000000"/>
		<rect id="Rectangle 28" x="16.086792" y="106.762695" width="7.312530" height="7.312530" fill="#FCC028" fill-opacity="1.000000"/>
		<rect id="Rectangle 137" x="70.931152" y="106.762695" width="7.312530" height="7.312530" fill="#FCC028" fill-opacity="1.000000"/>
		<rect id="Rectangle 217" x="125.775391" y="106.762695" width="7.312530" height="7.312530" fill="#FCC028" fill-opacity="1.000000"/>
		<rect id="Rectangle 44" x="27.056519" y="106.762695" width="7.312530" height="7.312530" fill="#FCC028" fill-opacity="1.000000"/>
		<rect id="Rectangle 138" x="81.899902" y="106.762695" width="7.312530" height="7.312530" fill="#FCC028" fill-opacity="1.000000"/>
		<rect id="Rectangle 218" x="136.744385" y="106.762695" width="7.312530" height="7.312530" fill="#FCC028" fill-opacity="1.000000"/>
		<rect id="Rectangle 60" x="38.024902" y="106.762695" width="7.312530" height="7.312530" fill="#FCC028" fill-opacity="1.000000"/>
		<rect id="Rectangle 139" x="92.868896" y="106.762695" width="7.312530" height="7.312530" fill="#FCC028" fill-opacity="1.000000"/>
		<rect id="Rectangle 219" x="147.713013" y="106.762695" width="7.312530" height="7.312530" fill="#FCC028" fill-opacity="1.000000"/>
		<rect id="Rectangle 76" x="48.993896" y="106.762695" width="7.312530" height="7.312530" fill="#FCC028" fill-opacity="1.000000"/>
		<rect id="Rectangle 140" x="103.837769" y="106.762695" width="7.312530" height="7.312530" fill="#FCC028" fill-opacity="1.000000"/>
		<rect id="Rectangle 220" x="158.681641" y="106.762695" width="7.312530" height="7.312530" fill="#FCC028" fill-opacity="1.000000"/>
		<rect id="Rectangle 13" x="5.118164" y="116.269531" width="7.312530" height="7.312530" fill="#FCC028" fill-opacity="1.000000"/>
		<rect id="Rectangle 141" x="59.962280" y="116.269531" width="7.312530" height="7.312530" fill="#FCC028" fill-opacity="1.000000"/>
		<rect id="Rectangle 221" x="114.806396" y="116.269531" width="7.312530" height="7.312530" fill="#FCC028" fill-opacity="1.000000"/>
		<rect id="Rectangle 29" x="16.086792" y="116.269531" width="7.312530" height="7.312530" fill="#FCC028" fill-opacity="1.000000"/>
		<rect id="Rectangle 142" x="70.931152" y="116.269531" width="7.312530" height="7.312530" fill="#FCC028" fill-opacity="1.000000"/>
		<rect id="Rectangle 222" x="125.775391" y="116.269531" width="7.312530" height="7.312530" fill="#FCC028" fill-opacity="1.000000"/>
		<rect id="Rectangle 45" x="27.056519" y="116.269531" width="7.312530" height="7.312530" fill="#FCC028" fill-opacity="1.000000"/>
		<rect id="Rectangle 143" x="81.899902" y="116.269531" width="7.312530" height="7.312530" fill="#FCC028" fill-opacity="1.000000"/>
		<rect id="Rectangle 223" x="136.744385" y="116.269531" width="7.312530" height="7.312530" fill="#FCC028" fill-opacity="1.000000"/>
		<rect id="Rectangle 61" x="38.024902" y="116.269531" width="7.312530" height="7.312530" fill="#FCC028" fill-opacity="1.000000"/>
		<rect id="Rectangle 144" x="92.868896" y="116.269531" width="7.312530" height="7.312530" fill="#FCC028" fill-opacity="1.000000"/>
		<rect id="Rectangle 224" x="147.713013" y="116.269531" width="7.312530" height="7.312530" fill="#FCC028" fill-opacity="1.000000"/>
		<rect id="Rectangle 77" x="48.993896" y="116.269531" width="7.312530" height="7.312530" fill="#FCC028" fill-opacity="1.000000"/>
		<rect id="Rectangle 145" x="103.837769" y="116.269531" width="7.312530" height="7.312530" fill="#FCC028" fill-opacity="1.000000"/>
		<rect id="Rectangle 225" x="158.681641" y="116.269531" width="7.312530" height="7.312530" fill="#FCC028" fill-opacity="1.000000"/>
		<rect id="Rectangle 14" x="5.118164" y="125.775879" width="7.312530" height="7.312530" fill="#FCC028" fill-opacity="1.000000"/>
		<rect id="Rectangle 146" x="59.962280" y="125.775879" width="7.312530" height="7.312530" fill="#FCC028" fill-opacity="1.000000"/>
		<rect id="Rectangle 226" x="114.806396" y="125.775879" width="7.312530" height="7.312530" fill="#FCC028" fill-opacity="1.000000"/>
		<rect id="Rectangle 30" x="16.086792" y="125.775879" width="7.312530" height="7.312530" fill="#FCC028" fill-opacity="1.000000"/>
		<rect id="Rectangle 147" x="70.931152" y="125.775879" width="7.312530" height="7.312530" fill="#FCC028" fill-opacity="1.000000"/>
		<rect id="Rectangle 227" x="125.775391" y="125.775879" width="7.312530" height="7.312530" fill="#FCC028" fill-opacity="1.000000"/>
		<rect id="Rectangle 46" x="27.056519" y="125.775879" width="7.312530" height="7.312530" fill="#FCC028" fill-opacity="1.000000"/>
		<rect id="Rectangle 148" x="81.899902" y="125.775879" width="7.312530" height="7.312530" fill="#FCC028" fill-opacity="1.000000"/>
		<rect id="Rectangle 228" x="136.744385" y="125.775879" width="7.312530" height="7.312530" fill="#FCC028" fill-opacity="1.000000"/>
		<rect id="Rectangle 62" x="38.024902" y="125.775879" width="7.312530" height="7.312530" fill="#FCC028" fill-opacity="1.000000"/>
		<rect id="Rectangle 149" x="92.868896" y="125.775879" width="7.312530" height="7.312530" fill="#FCC028" fill-opacity="1.000000"/>
		<rect id="Rectangle 229" x="147.713013" y="125.775879" width="7.312530" height="7.312530" fill="#FCC028" fill-opacity="1.000000"/>
		<rect id="Rectangle 78" x="48.993896" y="125.775879" width="7.312530" height="7.312530" fill="#FCC028" fill-opacity="1.000000"/>
		<rect id="Rectangle 150" x="103.837769" y="125.775879" width="7.312530" height="7.312530" fill="#FCC028" fill-opacity="1.000000"/>
		<rect id="Rectangle 230" x="158.681641" y="125.775879" width="7.312530" height="7.312530" fill="#FCC028" fill-opacity="1.000000"/>
		<rect id="Rectangle 15" x="5.118164" y="135.282227" width="7.312530" height="7.312530" fill="#FCC028" fill-opacity="1.000000"/>
		<rect id="Rectangle 151" x="59.962280" y="135.282227" width="7.312530" height="7.312530" fill="#FCC028" fill-opacity="1.000000"/>
		<rect id="Rectangle 231" x="114.806396" y="135.282227" width="7.312530" height="7.312530" fill="#FCC028" fill-opacity="1.000000"/>
		<rect id="Rectangle 31" x="16.086792" y="135.282227" width="7.312530" height="7.312530" fill="#FCC028" fill-opacity="1.000000"/>
		<rect id="Rectangle 152" x="70.931152" y="135.282227" width="7.312530" height="7.312530" fill="#FCC028" fill-opacity="1.000000"/>
		<rect id="Rectangle 232" x="125.775391" y="135.282227" width="7.312530" height="7.312530" fill="#FCC028" fill-opacity="1.000000"/>
		<rect id="Rectangle 47" x="27.056519" y="135.282227" width="7.312530" height="7.312530" fill="#FCC028" fill-opacity="1.000000"/>
		<rect id="Rectangle 153" x="81.899902" y="135.282227" width="7.312530" height="7.312530" fill="#FCC028" fill-opacity="1.000000"/>
		<rect id="Rectangle 233" x="136.744385" y="135.282227" width="7.312530" height="7.312530" fill="#FCC028" fill-opacity="1.000000"/>
		<rect id="Rectangle 63" x="38.024902" y="135.282227" width="7.312530" height="7.312530" fill="#FCC028" fill-opacity="1.000000"/>
		<rect id="Rectangle 154" x="92.868896" y="135.282227" width="7.312530" height="7.312530" fill="#FCC028" fill-opacity="1.000000"/>
		<rect id="Rectangle 234" x="147.713013" y="135.282227" width="7.312530" height="7.312530" fill="#FCC028" fill-opacity="1.000000"/>
		<rect id="Rectangle 79" x="48.993896" y="135.282227" width="7.312530" height="7.312530" fill="#FCC028" fill-opacity="1.000000"/>
		<rect id="Rectangle 155" x="103.837769" y="135.282227" width="7.312530" height="7.312530" fill="#FCC028" fill-opacity="1.000000"/>
		<rect id="Rectangle 235" x="158.681641" y="135.282227" width="7.312530" height="7.312530" fill="#FCC028" fill-opacity="1.000000"/>
		<rect id="Rectangle 16" x="5.118164" y="144.788086" width="7.312530" height="7.312530" fill="#FCC028" fill-opacity="1.000000"/>
		<rect id="Rectangle 156" x="59.962280" y="144.788086" width="7.312530" height="7.312530" fill="#FCC028" fill-opacity="1.000000"/>
		<rect id="Rectangle 236" x="114.806396" y="144.788086" width="7.312530" height="7.312530" fill="#FCC028" fill-opacity="1.000000"/>
		<rect id="Rectangle 32" x="16.086792" y="144.788086" width="7.312530" height="7.312530" fill="#FCC028" fill-opacity="1.000000"/>
		<rect id="Rectangle 157" x="70.931152" y="144.788086" width="7.312530" height="7.312530" fill="#FCC028" fill-opacity="1.000000"/>
		<rect id="Rectangle 237" x="125.775391" y="144.788086" width="7.312530" height="7.312530" fill="#FCC028" fill-opacity="1.000000"/>
		<rect id="Rectangle 48" x="27.056519" y="144.788086" width="7.312530" height="7.312530" fill="#FCC028" fill-opacity="1.000000"/>
		<rect id="Rectangle 158" x="81.899902" y="144.788086" width="7.312530" height="7.312530" fill="#FCC028" fill-opacity="1.000000"/>
		<rect id="Rectangle 238" x="136.744385" y="144.788086" width="7.312530" height="7.312530" fill="#FCC028" fill-opacity="1.000000"/>
		<rect id="Rectangle 64" x="38.024902" y="144.788086" width="7.312530" height="7.312530" fill="#FCC028" fill-opacity="1.000000"/>
		<rect id="Rectangle 159" x="92.868896" y="144.788086" width="7.312530" height="7.312530" fill="#FCC028" fill-opacity="1.000000"/>
		<rect id="Rectangle 239" x="147.713013" y="144.788086" width="7.312530" height="7.312530" fill="#FCC028" fill-opacity="1.000000"/>
		<rect id="Rectangle 80" x="48.993896" y="144.788086" width="7.312530" height="7.312530" fill="#FCC028" fill-opacity="1.000000"/>
		<rect id="Rectangle 160" x="103.837769" y="144.788086" width="7.312530" height="7.312530" fill="#FCC028" fill-opacity="1.000000"/>
		<rect id="Rectangle 240" x="158.681641" y="144.788086" width="7.312530" height="7.312530" fill="#FCC028" fill-opacity="1.000000"/>
	</g>
</svg>
